<svg version="1" xmlns="http://www.w3.org/2000/svg" width="1200" height="960" viewBox="0 0 900 720"><g fill="#e0ffff"><path d="M533.4 155.5c-.4.8-1.5 1.5-2.6 1.5-2.4 0-21.8 19.1-21.8 21.4 0 2.1-3.5 5.6-5.6 5.6-2 0-15.4 13.3-15.4 15.3 0 1.3-36.3 38.7-37.5 38.7-.2 0-18.6-18.2-40.8-40.5L369.2 157H303.5l-2.2 2.4c-1.3 1.3-2.3 2.9-2.3 3.6 0 .6 28.8 29.9 63.9 65.1 43.7 43.7 64.6 63.9 66 63.9 1.5 0 2.1.6 2.1 2.1 0 2.3 15.9 18.9 18 18.9.7 0 5.9-4.7 11.7-10.5 5.7-5.8 11.1-10.5 12-10.5 2 0 9.3-7.3 9.3-9.3 0-.9 23-24.5 51-52.5 28.1-28.1 51-51.7 51-52.6 0-.8 4-5.5 8.9-10.4l8.9-8.8-2.3-2.2c-2.3-2.2-2.6-2.2-33.9-2.2-27.2 0-31.7.2-32.2 1.5zM248 246.2v31.2l20.8 20.2c11.4 11.1 30.4 29.7 42.2 41.2l21.5 21-41.9 42.1-41.8 42 .3 31c.2 17.1.8 31.1 1.3 31.1.4 0 23.7-23.1 51.7-51.3 28-28.1 60.7-61 72.7-73l21.7-21.7-13.5-13.3c-7.4-7.3-33-32.4-56.9-55.7-23.9-23.4-51.1-50-60.5-59.3-9.4-9.2-17.2-16.7-17.3-16.7-.2 0-.3 14-.3 31.2zM645.5 218.3c-2.4 2.6-51.2 50.5-97.9 96.2-29.3 28.6-46.6 45.7-46.6 46.1 0 1 146.9 147.9 147.4 147.4.3-.3.6-14.9.7-32.4l.1-31.9-14.6-14.6c-39.9-40-66.6-67.5-66.6-68.6 0-1.1 15.9-17.1 61-61.2l21.4-21.1.4-31.6c.5-34.8.5-34.6-5.3-28.3zM378.6 481.9c-38.6 38.5-71.6 71.2-73.3 72.7l-3.3 2.8 2.2 2.3c2.1 2.3 2.2 2.3 32.1 2.3h29.9l40.5-40.5c26-26 41.1-40.5 42.4-40.5 2.2 0 58.3 55.9 60.9 60.6.9 1.6 2.8 3.5 4.4 4.4 3.3 1.7 9.6 7.6 9.6 9 0 1.7 5.2 7 6.9 7 .9 0 2.1.4 2.7 1 .6.6 12.6 1 29.8 1 25.5.1 29-.1 30.6-1.5 1.8-1.6.3-3.2-29.6-33.2-17.3-17.3-31.4-31.9-31.4-32.4 0-1.6-8.8-9.9-10.5-9.9-.8 0-1.5-.8-1.5-1.7 0-2-43.8-46.3-45.7-46.3-.8 0-1.8-1-2.3-2.3-.9-2.3-22.3-24.7-23.6-24.7-.5 0-32.3 31.5-70.8 69.9z"/></g></svg>